<svg width="29" height="29" viewBox="0 0 29 29" fill="none" xmlns="http://www.w3.org/2000/svg">
<path d="M0 14.4998C0 15.5216 0.766054 16.3747 1.68346 16.3747H2.79688C2.52463 16.7235 2.37789 17.1728 2.38195 17.6246C2.3852 17.9868 2.48532 18.3544 2.68034 18.6695C3.20098 19.5109 4.26582 19.7298 5.02151 19.1498L8.63788 16.3746H11.584L10.1106 19.2167L6.14457 21.3173C5.3159 21.7561 4.95331 22.8924 5.34734 23.8156C5.49532 24.1622 5.73127 24.4417 6.01093 24.6257C6.36002 24.8554 6.78263 24.9389 7.19042 24.8506L6.63372 25.9244C6.17492 26.8094 6.45657 27.9741 7.25055 28.4846C8.04445 28.9951 9.09074 28.6832 9.54938 27.7985L10.1061 26.7247C10.241 27.162 10.5169 27.5284 10.8706 27.7506C11.1547 27.9291 11.4902 28.0159 11.8326 27.9854C12.7472 27.9039 13.4497 26.9859 13.3765 25.9675L13.0262 21.0917L14.4996 18.2496L15.2864 19.7674L15.973 21.0917L15.6234 25.9675C15.5503 26.9859 16.2528 27.9039 17.1674 27.9854C17.5097 28.0159 17.8453 27.929 18.1294 27.7506C18.4829 27.5285 18.7589 27.1625 18.8939 26.7255L19.4498 27.7986C19.9089 28.6841 20.9551 28.9955 21.7494 28.4847C22.5437 27.9739 22.8239 26.8087 22.3655 25.9245L21.8088 24.8507C22.2167 24.9392 22.6394 24.8558 22.989 24.6258C23.2699 24.441 23.5049 24.16 23.6519 23.8157C24.0456 22.8934 23.6844 21.7564 22.8554 21.3174L18.8887 19.2168L18.2021 17.8933L17.4153 16.3747H20.3621L23.9785 19.1499C24.7342 19.7299 25.799 19.511 26.3197 18.6696C26.5147 18.3544 26.6148 17.9869 26.6181 17.6247C26.6221 17.1729 26.4754 16.7236 26.2031 16.3748H27.3165C28.234 16.3748 29 15.5216 29 14.4999C29 13.4782 28.2339 12.625 27.3165 12.625H26.2031C26.4754 12.2762 26.6221 11.8269 26.6181 11.3751C26.6148 11.0129 26.5147 10.6453 26.3197 10.3302C25.799 9.48879 24.7342 9.2699 23.9785 9.84988L20.3621 12.6251H17.4153L18.8887 9.78378L22.8554 7.6832C23.6845 7.24424 24.0456 6.10724 23.6519 5.18494C23.5049 4.84057 23.2699 4.5596 22.989 4.37479C22.6394 4.14474 22.2166 4.06142 21.8088 4.14993L22.3655 3.0761C22.8241 2.19141 22.5445 1.0263 21.7494 0.515072C20.9543 0.00384331 19.9086 0.317007 19.4498 1.20204L18.8939 2.27506C18.7589 1.83809 18.4829 1.47209 18.1294 1.25001C17.8452 1.07153 17.5097 0.984743 17.1674 1.01523C16.2528 1.09669 15.5503 2.01467 15.6234 3.03313L15.973 7.9089L15.2864 9.23324L14.4996 10.751L13.0262 7.9089L13.3765 3.03313C13.4497 2.01467 12.7472 1.09666 11.8326 1.01523C11.4902 0.984741 11.1547 1.07154 10.8706 1.25001C10.5169 1.47223 10.2409 1.83862 10.1061 2.27595L9.54938 1.20212C9.09098 0.317865 8.04518 0.00421524 7.25055 0.515146C6.45591 1.02608 6.17468 2.19074 6.63372 3.07618L7.19042 4.15001C6.78267 4.06165 6.36002 4.14517 6.01093 4.37486C5.73125 4.55888 5.49532 4.83834 5.34734 5.18501C4.95327 6.10813 5.31588 7.24444 6.14457 7.68327L10.1106 9.78385L11.584 12.6251H8.63788L5.02151 9.84995C4.26582 9.26999 3.20099 9.48887 2.68034 10.3303C2.48531 10.6454 2.3852 11.013 2.38195 11.3751C2.37789 11.827 2.52463 12.2762 2.79688 12.6251H1.68346C0.765987 12.6251 0 13.4782 0 14.5L0 14.4998ZM0.869214 14.4998C0.869214 13.9973 1.23232 13.593 1.68352 13.593H5.49658L3.60454 12.1405C3.37236 11.9623 3.2486 11.6758 3.25122 11.3849C3.25279 11.2104 3.29996 11.0341 3.39596 10.879C3.65198 10.4653 4.15717 10.3616 4.52866 10.6467L8.3677 13.593H13.0893L10.7281 9.03883L6.51794 6.80929C6.11047 6.59355 5.93824 6.05452 6.13196 5.60066C6.2046 5.43049 6.31842 5.29677 6.45336 5.20798C6.67826 5.06001 6.9625 5.03595 7.21715 5.17079L9.29258 6.26942L7.38638 2.59236C7.1608 2.15721 7.29406 1.6044 7.68478 1.35315C8.07551 1.1019 8.57115 1.25033 8.79674 1.68547L10.7029 5.36334L10.887 2.81142C10.9095 2.49837 11.07 2.23597 11.2975 2.09303C11.434 2.00728 11.595 1.96476 11.7636 1.97978C12.2134 2.01984 12.5463 2.45522 12.5104 2.95612L12.1385 8.13192L14.4997 12.686L16.0391 9.71661L16.8608 8.13185L16.4897 2.95605C16.4537 2.45518 16.7867 2.01983 17.2364 1.97971C17.4051 1.96469 17.566 2.0072 17.7026 2.09296C17.9301 2.23589 18.0905 2.4983 18.113 2.81135L18.2964 5.36246L20.2026 1.6854C20.4282 1.25025 20.9245 1.10184 21.3153 1.35308C21.706 1.60432 21.8385 2.15708 21.6129 2.59229L19.7067 6.26934L21.7821 5.17071C22.0368 5.03587 22.3218 5.05994 22.5467 5.20791C22.6816 5.2967 22.7947 5.43041 22.8673 5.60058C23.0611 6.05438 22.8896 6.59343 22.4821 6.80922L18.2712 9.03876L15.91 13.5929H20.6323L24.4714 10.6466C24.8429 10.3615 25.3481 10.4652 25.6041 10.8789C25.7001 11.0341 25.7472 11.2103 25.7488 11.3848C25.7514 11.6757 25.6277 11.9622 25.3955 12.1404L23.5035 13.5929H27.3165C27.7677 13.5929 28.1308 13.9973 28.1308 14.4997C28.1308 15.0022 27.7676 15.4066 27.3165 15.4066H23.5035L25.3955 16.859C25.6277 17.0372 25.7514 17.3237 25.7488 17.6146C25.7472 17.7892 25.7001 17.9654 25.6041 18.1206C25.3481 18.5343 24.8429 18.638 24.4714 18.3529L20.6323 15.4066H15.91L17.4495 18.3768L18.2712 19.9616L22.4821 22.1911C22.8896 22.4069 23.0611 22.9459 22.8673 23.3998C22.7947 23.57 22.6816 23.7037 22.5467 23.7925C22.3218 23.9404 22.0368 23.9645 21.7821 23.8297L19.706 22.7302L21.6129 26.4081C21.8385 26.8432 21.706 27.3952 21.3153 27.6465C20.9245 27.8977 20.4282 27.7501 20.2026 27.315L18.2964 23.6379L18.113 26.189C18.0905 26.5021 17.9301 26.7645 17.7026 26.9074C17.566 26.9932 17.4051 27.0357 17.2364 27.0207C16.7867 26.9806 16.4537 26.5452 16.4897 26.0443L16.8608 20.8685L16.0391 19.2838L14.4997 16.3135L12.1385 20.8685L12.5104 26.0443C12.5463 26.5452 12.2134 26.9805 11.7636 27.0207C11.595 27.0357 11.434 26.9932 11.2975 26.9074C11.07 26.7645 10.9095 26.5021 10.887 26.189L10.7037 23.6371L8.79676 27.315C8.57117 27.7501 8.07557 27.8977 7.6848 27.6465C7.29403 27.3952 7.16081 26.8433 7.3864 26.4081L9.29332 22.7302L7.21717 23.8297C6.96251 23.9645 6.67826 23.9404 6.45337 23.7925C6.31843 23.7037 6.20461 23.5699 6.13197 23.3998C5.93825 22.946 6.11049 22.4069 6.51795 22.1911L10.7282 19.9616L13.0893 15.4066H8.36772L4.52867 18.3529C4.15717 18.638 3.65195 18.5343 3.39598 18.1206C3.29997 17.9654 3.2528 17.7892 3.25123 17.6146C3.24862 17.3237 3.37237 17.0373 3.60456 16.859L5.49659 15.4066H1.68354C1.23237 15.4066 0.869228 15.0022 0.869228 14.4997L0.869214 14.4998Z" fill="#111010"/>
</svg>
